PathFileType	4	(X/Y/Z)	C:\Users\chris\Documents\GitHub\baseballds\vids\pitch4_Sports2D\pitch4_Sports2D_px_person00.trc
DataRate	CameraRate	NumFrames	NumMarkers	Units	OrigDataRate	OrigDataStartFrame	OrigNumFrames
30	30	8	22	m	30	119	238
Frame#	Time	Hip			RHip			RKnee			RAnkle			RBigToe			RSmallToe			RHeel			LHip			LKnee			LAnkle			LBigToe			LSmallToe			LHeel			Neck			Head			Nose			RShoulder			RElbow			RWrist			LShoulder			LElbow			LWrist		
		X1	Y1	Z1	X2	Y2	Z2	X3	Y3	Z3	X4	Y4	Z4	X5	Y5	Z5	X6	Y6	Z6	X7	Y7	Z7	X8	Y8	Z8	X9	Y9	Z9	X10	Y10	Z10	X11	Y11	Z11	X12	Y12	Z12	X13	Y13	Z13	X14	Y14	Z14	X15	Y15	Z15	X16	Y16	Z16	X17	Y17	Z17	X18	Y18	Z18	X19	Y19	Z19	X20	Y20	Z20	X21	Y21	Z21	X22	Y22	Z22
119	3.966666666666667	257.2641112085284	1075.528200022852	0.0	236.36491675742877	1090.6589333699308	0.0	330.29719740180536	1395.461895510412	0.0	262.28573850832896	1707.9479256724285	0.0	413.0492590057356	1768.1283122861746	0.0	378.6271130728261	1781.4478107397765	0.0	230.77168651743213	1748.405146291906	0.0	297.57836220678416	1085.7591255698985	0.0	331.1472197579715	1376.4346279484346	0.0	301.8042693790648	1625.20924870015	0.0	432.9134526289032	1688.4756658664553	0.0	412.1504738066361	1663.050830422075	0.0	270.81122713214364	1661.442077687004	0.0	305.69571229959803	638.7027148045634	0.0	344.0924977760978	457.22852091157677	0.0	412.4006712404791	565.3925547436646	0.0	250.40587912700693	712.9392129313567	0.0	227.37100029843242	943.4047773898359	0.0	414.0474612131741	946.4344810397625	0.0	329.71846510790897	708.3620886305252	0.0	323.0005609517574	901.4567592438314	0.0	417.2163962551346	940.9205837193823	0.0
120	4.0	256.9747354946511	1075.8762589350126	0.0	237.31382454919205	1092.4453411938127	0.0	330.05247881768236	1397.370514074233	0.0	263.15554791441093	1710.4440325306412	0.0	414.79877828162597	1766.7380656769926	0.0	381.6130595848456	1780.688854505581	0.0	232.09308294786	1750.9359324288139	0.0	296.0291274546846	1085.9906497876664	0.0	331.6599892931862	1377.587775794344	0.0	301.2515379730598	1626.8999329802407	0.0	433.6056694238373	1691.0040282211828	0.0	412.5867814810128	1665.3254291211686	0.0	269.0055667384125	1664.5606897360171	0.0	305.0685149003212	640.7653875989582	0.0	343.86024193249443	460.26991692054446	0.0	411.36980907712933	567.8290503085071	0.0	251.55825148381228	713.4642136950695	0.0	228.20829636699378	943.8043873103501	0.0	414.3540420069103	946.4202419488312	0.0	326.87980328924584	709.5072099322158	0.0	323.7152081025479	903.5027774277196	0.0	415.4404426965558	944.2733352255632	0.0
121	4.033333333333333	257.8945791980847	1077.3445761089672	0.0	238.45793479382573	1094.4828054158536	0.0	329.3361744626487	1399.2850284996684	0.0	263.5593053810125	1713.4964956825686	0.0	415.4220192555491	1767.0680787764686	0.0	383.7489293141875	1781.181530985208	0.0	232.3017407733685	1753.8807762294964	0.0	296.3668982482186	1086.6650969881036	0.0	330.91579411943394	1378.8072779007898	0.0	300.6872685474122	1629.1811258994242	0.0	434.014741615789	1694.1354133795578	0.0	413.2398820396659	1666.3636473523434	0.0	267.5693672426631	1667.6256161249848	0.0	303.82372194255777	641.953663717091	0.0	344.14885825122747	464.0987978750287	0.0	410.64981396674034	571.593416242202	0.0	251.5808862814295	714.193654682909	0.0	229.59064282011838	945.3639863247798	0.0	416.02843289254406	945.7199877904493	0.0	325.0583518472987	709.8220480745987	0.0	323.28650787680346	907.0744637468927	0.0	417.86378878191886	944.415192316653	0.0
122	4.066666666666666	258.9762642197797	1079.6239856872223	0.0	238.83902936116976	1095.751680932497	0.0	328.59708870388704	1400.3588736525667	0.0	263.9458157329746	1715.6691877853955	0.0	414.99285195732705	1768.2798332866178	0.0	383.5662858224428	1782.1060039181054	0.0	232.0251681413381	1755.6348955815251	0.0	298.1079017071102	1087.1701477950696	0.0	329.78508801381327	1379.879792314503	0.0	300.5981059070555	1630.9495381365589	0.0	433.69677528573584	1693.7498245503994	0.0	413.3397883181127	1664.7805910449342	0.0	267.96405005428915	1668.8533683785333	0.0	302.6602634315241	642.3276959933694	0.0	344.5570656414662	466.26736798320826	0.0	409.5404233379529	575.5961561792215	0.0	251.18334956735	713.6740855749456	0.0	230.2481420035225	946.6621674864559	0.0	417.87335465526996	944.9876352395281	0.0	325.33390649403265	710.061629330242	0.0	321.24080510653323	910.6266779145753	0.0	422.3159098704892	942.9451043978165	0.0
123	4.1	259.01308897029844	1081.6413125617228	0.0	238.99526218115847	1096.7374868938734	0.0	328.3619758737959	1400.9145368836837	0.0	264.72596748991987	1716.4974372338752	0.0	415.3716052371403	1768.3699879231397	0.0	383.1125637486481	1782.680284647864	0.0	231.8840172384025	1755.7142283366675	0.0	298.89201018144166	1088.0504455982468	0.0	328.4205743613429	1381.0240644190712	0.0	301.3197127760586	1629.9969925297328	0.0	432.2484049437535	1688.7553598527948	0.0	412.4812328653693	1660.2615811852365	0.0	269.8800559186335	1667.8964088655628	0.0	302.09741239218084	642.9211496495884	0.0	344.54936936887907	466.57336131851434	0.0	408.31327777290255	578.5770658479647	0.0	251.46492269169846	712.5549346859611	0.0	230.61382968946646	947.2159504873912	0.0	418.02654861080975	944.7567486269057	0.0	325.79906594513744	711.374781421333	0.0	317.12564810064464	913.221162355276	0.0	424.8198074227447	942.7674841940714	0.0
124	4.133333333333333	258.39348129772804	1083.005387659114	0.0	239.11586916354418	1098.3364577953628	0.0	328.6944781061282	1401.7426583152023	0.0	265.1623999796379	1716.7731248369864	0.0	416.2956449721884	1768.908944208741	0.0	383.83388678013773	1784.042866295411	0.0	231.2571868235125	1755.6206635322324	0.0	298.31517119688857	1090.7077979553524	0.0	327.22682463367136	1382.7849806570973	0.0	302.43581547502725	1627.7190017144248	0.0	430.9965117214221	1684.0383673943466	0.0	412.15019313122923	1656.5422192523538	0.0	271.866489505365	1666.3972505562351	0.0	302.1576174402015	643.6099668807585	0.0	344.2034151797766	467.2099861549747	0.0	408.0804645999119	579.788134826832	0.0	251.4834486493853	712.8054647758529	0.0	231.71482011840214	948.0363439653038	0.0	416.6785447319306	945.5375281720374	0.0	324.91587650764365	713.6421458809727	0.0	313.4313409854523	914.6309443072413	0.0	425.78841615570775	942.5776981854847	0.0
125	4.166666666666667	258.2144896532965	1083.9696480218358	0.0	238.96301319240314	1099.5815459479736	0.0	328.4930850548243	1402.9471852084932	0.0	264.65127312846596	1716.867174337199	0.0	416.15245861611885	1770.5359964787726	0.0	384.65353778598876	1785.9283123628818	0.0	230.10747053910967	1756.4219970447698	0.0	298.0057052621491	1093.993821073426	0.0	327.37525604052246	1384.4903012528496	0.0	302.83875214292823	1628.3510857596834	0.0	431.5863146401309	1684.268329243246	0.0	413.21355899226035	1657.6528153727638	0.0	271.77279271223034	1666.8924152634768	0.0	302.2608032375051	643.8318184295514	0.0	343.40768725125196	468.72051370485826	0.0	407.8617153471845	579.9641596261329	0.0	250.0578416939349	714.4454023584838	0.0	233.0837467542217	949.2674906477723	0.0	415.7368590183117	946.9367336745825	0.0	323.19088175779575	715.2569310570374	0.0	313.4327161136157	914.1169594922671	0.0	426.2373991334973	940.4340033818899	0.0
126	4.2	258.5327423293239	1084.3825480921791	0.0	239.0269706549392	1099.1160615657145	0.0	327.0867180924258	1403.598646473663	0.0	264.07049989687016	1716.7029675438744	0.0	415.57248904550084	1770.229400508389	0.0	384.6546326245035	1786.1943207230615	0.0	229.73780189064868	1757.4460192982908	0.0	298.3214837326542	1094.9117059147056	0.0	328.78023128389407	1384.5796617648166	0.0	302.4498630998465	1631.7811398120266	0.0	433.34366370536594	1687.322987152968	0.0	414.0025232446345	1661.2355703186188	0.0	269.5113711695169	1669.4908010264344	0.0	301.6105674755942	644.0683602068071	0.0	341.8037141150023	470.10758017496323	0.0	405.8259651749259	580.585851315638	0.0	248.67197019920684	716.2756612788861	0.0	233.49804922926756	950.2585579354493	0.0	416.3171665084931	947.3304559995485	0.0	322.10343195315545	715.7980302603489	0.0	315.6959961282434	913.1192809165797	0.0	426.0839994373614	938.3514492256932	0.0
